<?xml version="1.0" standalone="no"?>
<!DOCTYPE svg PUBLIC "-//W3C//DTD SVG 1.1//EN" "http://www.w3.org/Graphics/SVG/1.1/DTD/svg11.dtd" >
<svg xmlns="http://www.w3.org/2000/svg">
<metadata>Generated by IcoMoon</metadata>
<defs>
<font id="icomoon" horiz-adv-x="1024">
<font-face units-per-em="1024" ascent="960" descent="-64" />
<missing-glyph horiz-adv-x="1024" />
<glyph unicode="&#x20;" horiz-adv-x="512" d="" />
<glyph unicode="&#xe900;" glyph-name="icon1" horiz-adv-x="1536" d="M1297.371 893.257l-559.543-558.324-559.543 558.324-171.886-171.886 731.429-731.429 731.429 731.429z" />
<glyph unicode="&#xe901;" glyph-name="icon215x" horiz-adv-x="1365" d="M553.167 261.612l-401.423 371.631-151.744-169.319 570.228-527.924 760.972 872.020-168.589 151.98z" />
<glyph unicode="&#xe902;" glyph-name="icon3" d="M672.059-3.836h11.001c38.714 0 77.429-0.024 116.141 0.006 36.036 0.030 56.594 20.47 56.598 56.265 0.012 109.44-0.008 218.878 0.018 328.316 0.004 21.869 12.090 33.811 34.128 33.872 14.017 0.040 28.037-0.205 42.050 0.078 15.979 0.322 28.401 10.656 32.457 26.164 4.361 16.676-4.496 27.781-15.306 38.575-135.524 135.337-270.946 270.775-406.401 406.181-20.932 20.922-38.107 20.888-59.101-0.098-120.834-120.79-241.662-241.583-362.491-362.377-16.755-16.751-33.675-33.339-50.203-50.311-10.516-10.797-13.466-23.682-7.178-37.689 6.034-13.438 16.966-20.206 31.661-20.46 13.013-0.223 26.033-0.046 39.048-0.058 24.677-0.022 36.147-11.402 36.149-35.944 0.012-109.104-0.006-218.209 0.012-327.315 0.006-34.45 20.831-55.145 55.58-55.193 39.048-0.052 78.096-0.012 117.144-0.012h10.842c0 4.927 0 8.855 0 12.781 0.002 64.728-0.247 129.458 0.080 194.185 0.312 61.871 38.179 107.844 99.524 113.631 42.245 3.984 85.51 2.83 127.833-1.162 48.022-4.531 88.759-51.559 89.607-99.639 1.218-69.044 0.627-138.117 0.806-207.179 0.010-3.906 0.002-7.812 0.002-12.618v0zM1024 424.706c-6.577-16.399-13.928-32.261-27.348-44.531-17.674-16.162-38.115-25.346-62.254-25.674-5.618-0.078-11.236-0.012-18.328-0.012 0-4.792 0.002-8.652 0-12.513-0.080-100.443 0.29-200.889-0.42-301.328-0.39-55.141-50.008-103.918-105.126-104.389-55.405-0.472-110.818-0.161-166.228-0.129-20.433 0.010-32.744 12.427-32.761 33.188-0.060 77.418-0.014 154.838-0.030 232.256-0.008 35.868-19.707 55.78-55.5 55.929-28.705 0.119-57.432-0.661-86.113 0.191-36.665 1.090-55.827-27.765-55.397-55.587 1.188-76.733 0.424-153.497 0.402-230.25-0.006-24.062-11.566-35.737-35.308-35.741-52.739-0.010-105.478-0.082-158.217 0.020-60.854 0.119-109.883 46.204-110.607 107.012-1.184 99.429-0.442 198.881-0.511 298.323-0.004 3.908-0.002 7.816-0.002 11.792-12.328 1.116-23.73 1.061-34.647 3.337-35.652 7.424-59.72 29.148-70.675 63.52-10.956 34.384-3.487 65.799 20.682 92.925 2.218 2.489 4.609 4.826 6.967 7.186 136.423 136.389 272.791 272.829 409.415 409.017 8.389 8.362 17.97 16.276 28.401 21.702 30.659 15.947 82.829 11.581 112.495-19.171 63.943-66.284 129.918-130.607 195.063-195.731 67.504-67.486 134.855-135.126 202.612-202.357 18.068-17.925 35.62-35.858 43.431-60.924v-48.059z" />
<glyph unicode="&#xe903;" glyph-name="icon4" horiz-adv-x="1205" d="M504.92 390.613c24.4 9.911 47.65 18.619 70.262 28.772 18.467 8.289 35.797 8.008 54.208-0.162 22.573-10.020 45.788-18.594 68.901-27.861v230.3h-193.371v-231.049zM107.202 707.553h987.675c0 1.839 0.41 3.288-0.060 4.343-23.187 52.378-46.307 104.791-70.041 156.919-1.536 3.373-7.862 6.464-11.965 6.471-273.81 0.302-547.619 0.232-821.429 0.468-7.967 0.007-11.593-2.814-14.522-9.777-9.665-22.976-19.887-45.717-29.944-68.528-13.003-29.497-26.048-58.969-39.714-89.897v0zM1118.744 33.379v588.529h-334.358c0-5.989 0-11.191 0-16.396 0-89.077 0.088-178.158-0.14-267.235-0.021-8.648-0.487-17.817-3.321-25.832-8.258-23.374-32.946-32.757-58.598-22.684-36.961 14.514-73.611 29.827-110.688 44.025-5.674 2.17-13.613 2.022-19.333-0.158-37.898-14.441-75.389-29.947-113.188-44.662-24.028-9.355-49.326 1.502-56.743 24.605-2.483 7.723-2.718 16.41-2.735 24.661-0.179 89.517-0.112 179.037-0.112 268.554 0 5.071 0 10.146 0 14.908h-334.368v-588.315h1033.585zM602.384-51.485c-184.632 0-369.264-0.004-553.896 0.004-32.873 0-48.422 15.176-48.432 47.982-0.077 220.755-0.133 441.51 0.249 662.266 0.018 10.582 2.567 21.9 6.807 31.617 34.819 79.768 70.507 159.149 105.477 238.85 9.16 20.877 23.523 30.787 46.682 30.766 295.324-0.292 590.651-0.274 885.974-0.028 22.535 0.018 36.983-9.651 45.935-29.971 35.454-80.475 71.43-160.717 106.571-241.329 4.233-9.71 6.421-21.126 6.438-31.758 0.361-219.876 0.053-439.752 0.516-659.628 0.066-32.191-22.247-49.371-49.74-49.238-184.19 0.901-368.387 0.469-552.581 0.469v0z" />
<glyph unicode="&#xe904;" glyph-name="icon5" horiz-adv-x="1205" d="M1077.13 885.252c71.675-54.552 111.459-129.413 123.484-217.422 18.138-132.79-24.314-244.58-121.4-338.32-107.95-104.23-213.845-210.529-320.462-316.095-41.874-41.466-92.132-64.184-151.415-65.322-62.856-1.208-116.164 21.618-160.533 65.545-105.691 104.64-211.913 208.765-317.143 313.856-23.934 23.905-47.537 49.005-66.47 76.756-89.64 131.388-83.291 310.316 15.111 431.88 56.525 69.831 131.62 109.228 221.271 119.919 112.838 13.457 212.205-18.588 298.896-90.384 1.292-1.069 2.77-1.916 4.684-3.228 33.58 28.619 69.993 52.542 111.297 68.124 128.974 48.658 251.525 39.289 362.681-45.308zM638.864 779.245c-23.054-23.593-49.032-23.812-71.713-0.253-60.167 62.511-134.252 93.681-207.359 95.25-132.94 1.493-231.24-68.856-262.642-181.878-30.673-110.384-4.156-208.918 76.538-290.496 108.837-110.034 220.109-217.728 330.555-326.21 9.259-9.094 19.384-17.821 30.465-24.537 54.047-32.76 118.061-23.649 165.619 23.173 108.767 107.080 217.523 214.166 326.022 321.507 78.157 77.319 108.232 169.979 87.529 277.479-20.742 107.687-111.744 190.018-220.669 199.564-99.539 8.719-184.742-22.378-254.344-93.598zM909.164 811.865c72.287-25.002 155.424-90.766 157.356-199.511 4.962-36.95-33.745-59.626-62.057-43.639-13.45 7.595-21.801 18.685-22.125 34.35-1.246 60.081-34.421 98.447-86.35 124.116-5.849 2.891-12.194 4.828-17.941 7.879-19.183 10.181-27.386 32.621-19.38 52.167 8.010 19.567 30.437 31.577 50.496 24.638z" />
<glyph unicode="&#xe905;" glyph-name="icon6" horiz-adv-x="975" d="M487.954 435.953c77.978 0.191 142.354 64.501 142.685 142.531 0.328 78.057-64.895 143.328-143.031 143.135-77.978-0.191-142.354-64.499-142.685-142.529-0.33-78.057 64.893-143.33 143.031-143.137zM500.401 41.306c15.353 1.89 43.598 3.786 71.197 9.061 79.76 15.245 149.025 51.734 208.744 106.667 4.459 4.104 5.318 7.165 3.242 12.929-17.762 49.303-45.495 92.066-84.873 126.567-85.102 74.566-183.517 99.715-292.739 70.329-104.301-28.064-175.217-95.442-213.774-196.546-1.82-4.772-2.674-8.128 1.985-12.411 82.969-76.291 180.957-114.471 306.217-116.597zM829.407 211.987c124.909 158.514 125.835 412.598-49.935 576.143-169.72 157.915-439.782 150.526-599.476-15.403-166.892-173.406-147.687-419.46-33.471-560.621 21.174 48.16 50.959 89.988 89.463 125.539 38.612 35.649 83.155 61.556 133.336 79.195-104.666 80.707-103.303 221.308-24.812 301.86 76.587 78.601 202.778 80.283 283.354 3.037 78.391-75.151 88.225-220.721-21.193-304.864 103.041-37.271 177.256-105.508 222.735-204.887zM522.078-15.598h-68.595c-2.386 0.616-4.738 1.486-7.165 1.808-16.93 2.247-34.053 3.462-50.784 6.704-84.751 16.422-160.298 52.421-225.493 109.103-90.42 78.61-145.733 177.025-164.414 295.643-2.102 13.346-3.762 26.764-5.628 40.148 0 22.861 0 45.724 0 68.585 0.599 2.071 1.603 4.116 1.734 6.217 2.138 33.986 8.689 67.185 18.514 99.701 70.88 234.604 306.124 386.309 559.462 339.070 84.949-15.839 161.162-51.686 225.653-109.304 138.866-124.062 192.313-279.241 161.374-462.385-14.334-84.851-52.049-159.893-108.524-224.944-78.639-90.582-177.154-145.998-295.932-164.714-13.365-2.104-26.8-3.765-40.203-5.633z" />
<glyph unicode="&#xe906;" glyph-name="icon8" horiz-adv-x="536" d="M374.708 427.855l-374.708 401.929 81.791 85.666 454.59-487.595-454.59-487.643-81.791 85.666 374.708 401.977z" />
<glyph unicode="&#xe907;" glyph-name="icon7" horiz-adv-x="975" d="M593.979 595.358c0.338 133.061-108.757 242.279-242.251 242.524-133.26 0.245-242.293-108.717-242.412-242.25-0.119-133.505 108.525-242.271 242.153-242.434 133.393-0.166 242.167 108.457 242.51 242.16v0zM370.992 947.2c24.669-4.324 49.677-7.275 73.936-13.264 48.913-12.068 92.429-35.638 130.971-67.871 57.003-47.677 95.939-107.343 115.026-179.355 20.403-76.97 15.65-152.736-15.416-225.98-11.455-27.012-27.368-52.138-41.887-79.319 7.376-7.6 16.515-16.684 29.39-19.351 5.701-1.182 13.023-0.609 17.988 2.122 8.23 4.526 16.147 5.203 23.523 0.897 9.499-5.546 19.181-11.621 26.785-19.419 76.224-78.155 152.084-156.668 227.94-235.18 21.646-22.406 21.26-47.137-0.84-68.722-19.808-19.351-39.732-38.582-59.727-57.738-21.015-20.133-46.351-19.988-66.621 0.908-77.125 79.503-154.185 159.071-230.884 238.981-7.070 7.365-12.216 16.958-16.752 26.251-3.553 7.283-2.44 14.983 2.14 22.662 2.767 4.641 4.421 12.133 2.641 16.864-4.144 10.994-10.67 21.095-15.21 29.642-28.15-15.848-53.302-32.168-80.22-44.708-54.693-25.476-112.709-34.233-172.905-29.026-70.808 6.129-133.933 31.545-189.228 75.828-49.443 39.598-85.658 89.258-108.313 148.542-23.758 62.16-29.271 126.175-16.998 191.387 11.459 60.884 37.566 115.17 78.026 162.253 43.75 50.917 97.369 87.524 161.759 106.76 24.496 7.315 50.29 10.291 75.496 15.225 3.077 0.602 6.176 1.077 9.264 1.611h40.114z" />
<glyph unicode="&#xe908;" glyph-name="icon9" horiz-adv-x="768" d="M399.216 960c24.562-4.53 49.489-7.707 73.613-13.846 64.389-16.383 119.38-49.021 165.748-94.909 49.745-49.229 82.79-107.659 97.457-175.058 20.286-93.217 5.039-181.22-45.464-263.052-94.143-152.536-188.671-304.844-283.090-457.22-16.255-26.231-42.947-26.604-59.518-0.794-96.911 150.936-193.801 301.884-290.595 452.893-45.824 71.493-64.754 149.253-54.771 232.798 10.335 86.459 48.712 160.043 113.839 220.213 51.249 47.351 112.067 77.552 181.286 91.797 15.729 3.238 31.818 4.827 47.738 7.179h53.759zM306.736 893.041c-67.103-13.591-123.184-46.555-168.245-96.509-42.341-46.94-67.134-101.627-74.296-163.53-8.32-71.914 10.11-137.513 49.603-198.565 74.615-115.353 148.512-231.143 222.708-346.751 13.212-20.582 26.418-41.169 40.244-62.712 1.621 2.033 2.336 2.764 2.859 3.608 86.436 139.523 173.354 278.771 259.091 418.698 46.837 76.441 56.136 158.337 29.021 243.101-20.807 65.051-61.17 117.419-119.207 156.051-73.452 48.893-154.657 64.257-241.777 46.61zM373.311 773.818c102.837-0.27 185.556-83.992 185.233-187.475-0.325-102.619-83.472-185.012-186.591-184.888-103.257 0.125-185.94 83.259-185.771 186.785 0.169 102.925 83.787 185.849 187.129 185.578zM372.516 711.839c-68.25 0.036-124.317-55.886-124.356-124.040-0.039-68.445 55.601-124.287 123.913-124.367 68.421-0.080 124.284 55.546 124.442 123.911 0.158 68.139-55.94 124.46-123.999 124.496z" />
<glyph unicode="&#xe909;" glyph-name="icon10" horiz-adv-x="1075" d="M1051.927 856.869l-103.131 103.131-408.869-408.869-408.869 408.869-103.131-103.131 408.869-408.869-408.869-408.869 103.131-103.131 408.869 408.869 408.869-408.869 103.131 103.131-408.869 408.869z" />
<glyph unicode="&#xe90a;" glyph-name="icon11" horiz-adv-x="1707" d="M853.367 959.682c250.201 0 500.408-0.117 750.608 0.122 39.578 0.037 70.801-12.743 90.516-44.057 31.472-49.991-0.997-112.762-63.756-123.759-10.083-1.767-20.564-2.436-30.854-2.436-497.446-0.117-994.892-0.058-1492.339-0.218-30.089-0.011-57.673 5.546-79.056 25.46-27.602 25.709-35.881 56.355-21.596 89.877 14.231 33.395 42.819 51.732 82.563 54.646 17.65 1.29 35.513 0.361 53.276 0.361 236.877 0.011 473.761 0.005 710.638 0.005zM895.721 362.819c-152.283 0.005-304.571-0.219-456.854 0.118-58.922 0.134-100.463 39.319-97.372 90.387 2.553 42.148 39.416 76.751 84.881 79.585 5.753 0.364 11.541 0.396 17.312 0.396 301.683 0.021 603.366 0.064 905.050-0.027 57.521-0.016 97.708-31.282 101.638-78.403 4.173-50.073-36.974-91.424-93.471-91.831-96.706-0.69-193.424-0.219-290.136-0.23-57.012-0.005-114.030 0-171.048 0.005zM853.373-63.872c-27.954 0-55.909-0.328-83.857 0.074-48.542 0.699-85.598 36.387-86.82 83.096-1.164 44.242 33.084 83.694 79.763 85.552 60.462 2.403 121.164 2.44 181.62 0.005 47.501-1.916 82.336-42.808 79.79-87.431-2.648-46.38-38.822-80.523-86.639-81.222-27.949-0.408-55.903-0.074-83.857-0.074z" />
<glyph unicode="&#xe90b;" glyph-name="icon12" d="M790.669 960c10.411 0 18.721-3.507 25.955-10.715 65.237-65.069 130.507-130.106 195.859-195.079 7.739-7.712 11.519-16.43 11.519-27.583-0.163-233.588-0.13-467.175-0.13-700.763 0-26.463-10.297-48.364-29.442-66.466-13.263-12.55-29.719-18.573-46.826-23.394h-702.573c-9.14 1.688-18.281 3.247-27.389 5.082-136.145 27.437-233.203 155.303-215.574 297.212 8.896 71.726 41.857 130.464 97.351 176.506 40.749 33.817 88.064 53.186 141.603 59.858v12.030c0 127.963-0.065 255.927 0.033 383.874 0.049 49.159 39.983 89.259 89.042 89.292 153.53 0.13 307.043 0.016 460.572 0.146zM271.067 415.952c-115.485-0.032-210.555-94.682-210.702-209.755-0.163-115.349 95.608-210.632 211.289-210.195 115.567 0.424 210.441 95.333 210.23 210.276-0.212 115.089-95.347 209.722-210.816 209.674zM762.938 899.931h-424.646c-25.743 0-37.067-11.413-37.067-37.324v-387.495c61.018-11.299 95.559-25.408 133.228-53.186 4.627-3.409 11.324-5.715 17.059-5.731 132.137-0.325 264.29-0.227 396.443-0.292 4.627 0 9.466 0 13.833-1.25 14.778-4.237 23.381-17.875 21.458-32.989-1.906-14.92-14.615-25.651-30.908-25.651l-353.527-0.032c9.303-19.709 19.601-38.022 26.704-57.488 7.234-19.823 11.307-40.766 17.124-62.521h9.287c99.029 0 198.058 0 297.088-0.065 4.285 0 8.782-0.065 12.839-1.25 14.729-4.302 23.348-17.94 21.376-33.038-1.939-14.92-14.615-25.586-30.941-25.602l-311.491-0.032c-9.483-72.765-42.15-131.535-98.785-180.004h485.093c25.010 0 36.562 11.664 36.562 36.86v667.108h-12.22c-51.861 0-103.705-0.016-155.566 0.016-20.937 0.016-32.912 11.933-32.928 32.73l-0.016 167.236zM271.093 355.956c-17.531-0.016-30.012-13.020-30.044-31.561-0.065-38.98-0.081-77.96 0-116.924 0.033-18.946 12.334-31.366 31.169-31.447 25.743-0.114 51.486-0.081 77.229-0.016 18.835 0.049 31.902 12.192 32.065 29.596 0.163 17.923-12.953 30.278-32.293 30.343-15.641 0.065-31.283 0.016-47.999 0.016l0.024 59.443-0.040 29.021c-0.065 18.54-12.562 31.528-30.11 31.528zM851.264 595.921c-145.807 0.032-291.63 0.016-437.436-0.032-3.633 0-7.413-0.211-10.835-1.234-14.729-4.416-23.283-17.907-21.344-33.087 1.857-14.465 14.485-25.537 29.963-25.554 73.563-0.097 147.143-0.049 220.722-0.049 72.911 0 145.823-0.032 218.718 0.016 19.356 0.016 32.456 12.42 32.294 30.375-0.148 17.388-13.231 29.564-32.083 29.564zM823.613 853.158v-92.734h91.877c-30.158 30.44-61.311 61.871-91.877 92.734z" />
<glyph unicode="&#xe90c;" glyph-name="icon13" d="M854.322 959.947c93.138-0.028 169.204-76.27 169.283-169.609 0.097-114.113 0.023-228.227 0.023-342.34 0-112.692-1.060-225.395 0.359-338.069 1.011-79.971-56.503-161.592-152.66-173.338-5.617-0.687-11.354-0.553-17.033-0.556l-684.445 0.003c-93.842 0.026-169.787 76.168-169.81 170.178l0.003 683.614c0.020 94.019 75.96 170.096 169.836 170.122 228.147 0.060 456.298 0.068 684.445-0.006zM954.809 413.033h-408.673v-408.402c2.905-0.154 4.956-0.359 7.004-0.359 99.49-0.014 198.98-0.1 298.468 0.142 8.77 0.023 17.759 1.311 26.262 3.507 47.115 12.177 77.353 51.812 77.472 101.977 0.231 98.102 0.074 196.204 0.043 294.306 0 3.054-0.39 6.105-0.575 8.829zM477.146 413.4h-408.571c-0.137-2.88-0.322-4.96-0.322-7.040-0.014-99.17-0.094-198.338 0.137-297.508 0.020-8.778 1.205-17.775 3.341-26.293 11.929-47.621 51.783-78.145 102.413-78.247 98.069-0.194 196.138-0.063 294.206-0.028 3.028 0 6.056 0.399 8.796 0.593v408.525zM360.265 312.384c12.829-6.231 21.405-19.561 18.802-33.886-1.484-8.159-6.001-16.806-11.63-22.969-14.344-15.712-30.079-30.154-46.582-46.404 15.985-15.789 31.842-30.43 46.357-46.299 5.648-6.174 10.283-14.732 11.841-22.88 2.737-14.316-5.714-27.701-18.5-34.043-13.245-6.567-28.108-4.499-39.253 6.442-15.942 15.647-31.414 31.772-48.143 48.766-16.512-16.661-31.987-32.686-47.929-48.233-13.587-13.251-32.668-14.122-46.317-2.806-15.843 13.137-17.187 35.592-2.393 50.815 15.555 16 31.694 31.436 48.587 48.114-16.389 16.199-31.386 30.835-46.172 45.683-15.968 16.040-16.911 36.607-2.589 50.971 14.339 14.379 34.907 13.533 50.954-2.439 15.048-14.98 29.814-30.242 45.705-46.396 16.953 17.216 32.636 33.595 48.838 49.441 10.687 10.45 25.53 12.385 38.424 6.122zM851.248 174.897c20.79-0.014 35.781-14.222 35.89-33.749 0.113-20.165-14.812-34.419-36.263-34.456l-100.137-0.014c-33.733 0-67.466-0.066-101.199 0.026-20.688 0.054-35.399 14.459-35.331 34.31 0.066 19.795 14.763 33.863 35.704 33.883 67.11 0.054 134.223 0.051 201.336 0zM850.228 311.439c21.707-0.011 36.815-13.912 36.909-33.806 0.099-20.57-14.872-34.393-37.377-34.416h-198.137c-22.471 0.020-37.499 13.866-37.416 34.373 0.080 20.111 14.937 33.837 36.815 33.846 66.401 0.034 132.804 0.031 199.205 0.003zM470.993 891.714c-99.493 0.014-198.983 0.085-298.476-0.123-8.437-0.017-17.073-1.094-25.268-3.1-48.106-11.781-78.871-51.829-78.959-102.957-0.171-98.105-0.054-196.21-0.034-294.315 0-2.741 0.242-5.479 0.39-8.641h408.314v408.824c-2.481 0.134-4.224 0.311-5.967 0.311zM820.597 891.705l-273.769 0.026v-408.906h408.582v9.083c0 97.752 0.134 195.5-0.051 293.249-0.108 56.983-36.852 98.811-93.238 105.737-13.669 1.678-27.675 0.803-41.523 0.812zM273.309 823.436c18.845-0.106 33.559-14.644 33.727-33.775 0.197-22.353 0.046-44.709 0.046-68.618 22.878 0 44.48 0.043 66.082-0.011 21.474-0.057 36.405-14.288 36.28-34.458-0.123-19.649-14.992-33.684-35.924-33.755-21.633-0.068-43.269-0.014-66.432-0.014l-0.003-46.94c0-7.108 0.085-14.216-0.020-21.322-0.293-19.792-14.94-34.251-34.474-34.132-18.808 0.118-33.519 14.716-33.676 33.838-0.182 22.347-0.043 44.698-0.043 68.555h-50.157c-6.395 0-12.792-0.125-19.184 0.034-18.839 0.464-33.146 15.47-33.022 34.504 0.123 18.479 14.339 33.384 32.734 33.621 22.696 0.288 45.397 0.068 69.625 0.068v50.156c0 6.040-0.071 12.083 0.017 18.122 0.285 19.846 14.826 34.236 34.422 34.126zM851.15 721.026c20.85-0.014 35.844-14.142 35.987-33.655 0.147-20.228-14.721-34.513-36.164-34.55-33.736-0.063-67.469-0.017-101.202-0.017-33.38 0-66.757-0.063-100.137 0.023-20.713 0.054-35.462 14.41-35.428 34.213 0.034 19.823 14.715 33.963 35.607 33.98 67.11 0.060 134.223 0.054 201.336 0.006z" />
<glyph unicode="&#xe90d;" glyph-name="icon14" horiz-adv-x="1152" d="M1152 649.483v-67.376c-0.761-3.226-1.871-6.413-2.231-9.682-7.037-63.669-30.475-121.313-64.902-174.762-48.715-75.629-111.771-138.657-178.687-197.724-92.92-82.023-187.262-162.439-281.061-243.472-31.734-27.414-66.164-27.276-98.126 0.329-93.523 80.779-187.606 160.923-280.261 242.681-67.206 59.303-130.488 122.59-179.49 198.505-55.763 86.385-79.066 180.233-61.49 282.171 15.451 89.6 56.952 165.010 131.428 219.419 69.781 50.977 148.46 69.058 233.743 55.782 73.040-11.37 131.6-49.073 180.256-103.344 8.62-9.612 16.584-19.811 24.956-29.864 10.341 12.236 19.485 24.106 29.694 34.978 78.46 83.567 174.261 119.599 287.292 95.552 133.826-28.474 212.624-115.833 247.476-245.373 5.093-18.928 7.662-38.53 11.401-57.821z" />
<glyph unicode="&#xe90e;" glyph-name="icon15" d="M512 960c282.773 0 512-229.227 512-512s-229.227-512-512-512c-282.762 0-512 229.227-512 512s229.238 512 512 512zM740.41 584.485c-14.031 15.234-36.781 15.234-50.812 0l-238.080-258.481-94.359 102.443-3.385 3.245c-14.095 11.899-34.475 10.817-47.428-3.245-14.031-15.234-14.031-39.934 0-55.168l119.766-130.032 3.385-3.245c14.095-11.899 34.475-10.817 47.428 3.245l263.485 286.070 2.989 3.675c10.959 15.303 9.963 37.431-2.989 51.493z" />
<glyph unicode="&#xe90f;" glyph-name="icon16" d="M512 960c282.764 0 512-229.236 512-512s-229.236-512-512-512c-282.764 0-512 229.236-512 512s229.236 512 512 512zM688.826 556.681c18.017 18.598 17.76 48.159-0.579 66.442s-47.991 18.539-66.646 0.577l-109.015-108.681-109.015 108.681c-11.937 12.321-29.613 17.263-46.236 12.925s-29.604-17.279-33.955-33.85c-4.351-16.571 0.606-34.194 12.965-46.094l109.015-108.681-109.015-108.681c-12.359-11.9-17.316-29.523-12.965-46.094s17.332-29.513 33.955-33.85c16.622-4.338 34.299 0.604 46.236 12.925l109.015 108.681 109.015-108.681c18.655-17.962 48.307-17.705 66.646 0.577s18.597 47.844 0.579 66.442l-109.015 108.681 109.015 108.681z" />
<glyph unicode="&#xe910;" glyph-name="icon17" horiz-adv-x="975" d="M771.345 375.868c112.478 0.212 203.716-90.664 203.895-203.085 0.178-112.197-91.001-203.781-203.209-204.117-111.886-0.327-203.781 91.364-203.886 203.437-0.102 112.497 90.703 203.551 203.2 203.765zM459.424 385.971c-49.108 0.008-98.218 0.122-147.325-0.076-12.693-0.054-25.426-0.626-38.069-1.768-130.978-11.852-243.422-114.313-268.089-243.24-7.719-40.349-5.558-80.947-5.92-121.52-0.249-27.998 12.662-40.638 40.802-40.641h428.192c2.827 0 5.68-0.187 8.473 0.136 14.251 1.649 24.35 9.019 29.318 22.568 8.436 23.007-8.631 45.122-34.913 45.136-130.012 0.065-260.024 0.031-390.036 0.031h-13.767c0 16.56-0.646 31.735 0.201 46.827 0.691 12.291 2.3 24.673 4.98 36.683 24.956 111.849 119.426 187.629 234.062 187.966 50.521 0.147 101.042 0.020 151.563 0.028 25.528 0.003 41.184 12.767 41.343 33.675 0.159 21.036-15.529 34.191-40.816 34.193zM772.016 307.994c-74.809 0.18-135.793-60.329-136.019-134.959-0.225-75.007 61.179-136.683 135.888-136.488 74.503 0.194 135.482 61.32 135.499 135.831 0.020 74.792-60.512 135.434-135.369 135.616zM771.651 200.446c-18.985-0.020-33.593-14.727-33.817-34.647-0.258-22.585-0.255-45.179-0.003-67.761 0.147-13.189 6.744-24.152 16.73-29.994l3.898-1.945c4.044-1.693 8.511-2.616 13.24-2.614l4.64 0.301c16.635 2.189 28.88 16.066 29.23 34.263 0.221 11.291 0.040 22.588 0.040 33.882s0.181 22.591-0.040 33.882c-0.394 19.795-15.064 34.652-33.919 34.633zM771.235 277.243c18.616 0.312 34.533-15.6 34.361-34.344-0.157-16.826-12.703-30.642-29.006-32.985l-4.995-0.35c-18.597 0.040-33.737 15.062-33.806 33.536-0.065 18.469 14.983 33.834 33.446 34.142zM475.736 928.97c130.845-0.302 236.824-106.89 236.649-238.015-0.173-130.916-106.691-237.207-237.595-237.093-131.199 0.113-237.773 107.249-237.323 238.569 0.456 130.712 107.359 236.841 238.269 236.539zM474.407 861.095c-93.071-0.202-169.007-76.308-169.083-169.466-0.079-93.632 76.114-169.893 169.746-169.893 93.666 0 169.568 76.154 169.463 170.027-0.105 93.734-76.262 169.536-170.126 169.333z" />
<glyph unicode="&#xe911;" glyph-name="icon18" horiz-adv-x="975" d="M516.218 928.97c2.761-0.563 5.502-1.258 8.284-1.666 22.559-3.303 45.45-5.093 67.639-10.046 194.563-43.423 342.731-199.28 375.568-394.635 3.351-19.937 5.059-40.15 7.53-60.234v-36.185c-1.639-16.009-2.771-32.089-5.011-48.015-8.599-61.154-28.481-118.52-58.381-172.534-2.137-3.859-2.729-9.769-1.578-14.067 13.5-50.417 27.379-100.732 41.351-151.021 7.685-27.668 15.735-55.236 23.62-82.848v-1.905c-4.298 0.899-8.698 1.462-12.88 2.744-69.65 21.351-139.353 42.54-208.814 64.492-10.124 3.2-17.622 2.010-26.484-3.156-62.847-36.648-130.634-58.402-203.189-63.892-101.621-7.687-197.337 13.406-284.128 66.826-147.601 90.846-228.297 223.801-238.85 397.013-5.897 96.778 17.5 187.855 68.217 270.655 77.213 126.056 188.817 203.563 334.523 230.875 18.313 3.433 36.956 5.109 55.446 7.599h57.139zM443.171 869.518c-91.003-9.288-172.143-43.755-239.7-105.554-120.445-110.182-168.571-247.386-136.892-407.507 28.786-145.5 115.476-248.986 250.881-309.477 89.938-40.179 183.668-46.146 279.012-20.547 45.711 12.275 87.671 33.019 127.415 58.398 5.195 3.317 9.761 4.284 15.843 2.254 19.229-6.418 38.666-12.217 58.045-18.181 30.836-9.488 61.69-18.916 94.117-28.855-0.761 3.706-1.034 5.548-1.523 7.33-13.819 50.415-27.544 100.858-41.646 151.193-1.786 6.382-1.12 11.305 2.214 16.952 7.571 12.819 14.866 25.843 21.454 39.188 54.753 110.932 60.992 225.028 16.649 340.12-70.879 183.969-251.43 294.531-445.869 274.686zM487.65 755.677c171.433-1.248 312.090-143.514 311.008-314.557-0.802-173.481-139.925-313.067-312.999-313.312-175.141-0.248-316.008 141.838-314.809 314.356 1.216 174.864 142.598 314.781 316.8 313.514zM562.92 327.178h-150.834c1.845-8.605 3.452-16.593 5.28-24.53 7.872-34.173 18.49-67.303 39.566-95.955 21.336-29.007 40.097-28.914 61.278 0.387 18.072 25 28.658 53.478 36.28 83.108 3.099 12.049 5.551 24.267 8.429 36.99zM353.897 326.453h-98.287c28.563-59.828 88.383-108.245 136.508-123.042-19.952 39.297-30.7 80.472-38.221 123.042zM714.433 327.195h-90.514c-12.424-41.505-24.421-81.581-36.183-120.875 55.059 24.66 97.611 64.719 126.697 120.875zM735.145 498.25h-105.779v-113.338h105.743c8.5 37.849 8.506 75.421 0.036 113.338zM571.498 498.071h-167.859v-113.165h167.859v113.165zM345.678 498.976c-35.677 0-71.171 0.13-106.657-0.324-2.128-0.027-5.693-4.515-6.051-7.259-2.090-16.006-4.786-32.122-4.658-48.179 0.153-19.458 2.908-38.895 4.521-58.163h112.846v113.926zM460.694 681.329c-29.147-36.421-39.507-80.333-48.683-125.233h150.891c-2.426 11.095-4.378 21.315-6.914 31.385-8.473 33.656-19.622 66.306-41.753 93.734-18.565 23.007-35.137 23.114-53.541 0.115zM585.351 676.872c18.191-38.48 28.16-79.15 35.87-120.707h93.432c-29.29 56.232-71.732 96.352-129.302 120.707zM390.404 679.212c-60.736-23.744-105.121-64.784-135.384-122.785h98.825c7.425 42.62 18.282 83.656 36.559 122.785z" />
<glyph unicode="&#xe912;" glyph-name="icon19" horiz-adv-x="838" d="M427.384 926.699c107.556-39.357 215.126-78.675 322.682-118.027 2.604-0.952 5.189-2.031 7.634-3.329 21.038-11.174 32.757-27.668 36.078-52.238 13.746-101.675 21.293-203.63 16.33-306.202-1.565-32.368-4.646-64.81-9.522-96.838-5.638-37.053-24.009-69.22-44.923-99.743-35.823-52.285-81.128-95.633-129.719-135.724-55.72-45.972-115.507-85.997-178.981-120.463l-9.879-4.934-20.214-9.035h-20.423c-70.078 32.127-133.281 75.183-193.676 122.551-48.326 37.904-92.741 79.841-130.801 128.365-40.724 51.92-62.774 110.276-67.806 176.223-7.23 94.762-5.037 189.137 6.548 283.324 3.088 25.108 8.589 49.916 12.845 74.883 3.899 22.853 19.813 34.915 39.434 42.889 28.030 11.39 56.236 22.405 84.687 32.695 79.268 28.667 158.727 56.806 238.044 85.344 14.014 5.042 27.705 5.365 41.662 0.258zM398.317 855.917c-100.169-36.19-200.175-72.836-300.267-109.242-5.313-1.932-7.414-4.933-8.52-10.479-14.279-71.581-17.942-144.080-19.689-226.54 0.957-21.799 2.091-53.324 3.782-84.819 2.612-48.621 12.724-95.067 42.931-134.819 14.011-18.436 28.094-37.026 44.005-53.778 70.066-73.759 152.025-131.9 241.038-180.444 2.803-1.53 7.885-1.587 10.665-0.064 89.479 48.976 171.815 107.578 242.429 181.714 47.458 49.822 80.498 105.256 83.73 177.398 4.822 107.62 1.049 214.484-13.714 321.084-0.774 5.588-3.262 8.579-8.56 10.509-100.075 36.463-200.066 73.156-300.217 109.406-5.251 1.9-12.377 1.967-17.615 0.074zM430.854 632.779c53.46-11.63 93.324-54.626 98.793-108.205 4.291-42.031-9.624-77.737-40.344-107.015-3.269-3.115-5.702-8.656-5.898-13.185-0.898-20.683 0.451-41.525-1.436-62.087-3.649-39.747-38.075-68.24-78.744-66.891-38.246 1.27-70.086 32.656-72.065 71.338-0.474 9.252-0.069 18.548-0.069 27.824-0.27 0.62-0.325 1.243-0.263 1.855 2.069 20.552-2.637 36.507-18.575 52.927-37.376 38.507-41.232 98.314-13.976 144.509 27.095 45.925 81.396 70.063 132.579 58.929zM395.257 563.606c-21.99-4.494-38.911-21.584-42.936-43.37-4.063-21.978 5.764-44.705 25.966-55.946 16.881-9.388 24.101-22.856 23.139-41.726-0.503-9.859-0.089-19.768-0.082-29.654 0-12.359-0.397-24.738 0.26-37.061 0.179-3.351 3.529-6.533 5.422-9.792 1.843 3.361 5.201 6.687 5.283 10.092 0.494 20.998 1.161 42.063-0.005 63.007-1.181 21.254 5.566 36.225 24.493 47.669 21.933 13.26 28.836 42.158 18.51 65.594-10.204 23.163-35.367 36.232-60.050 31.187z" />
<glyph unicode="&#xe913;" glyph-name="icon20" horiz-adv-x="683" d="M227.634-46.269c-2.764 0.719-5.541 1.417-8.286 2.158-17.108 4.624-26.992 15.64-23.656 26.35 3.512 11.287 19.037 19.983 38.047 20.067 55.472 0.249 110.953 0.249 166.425 0 19.002-0.085 34.507-8.768 38.044-20.062 3.352-10.705-6.523-21.72-23.639-26.353-2.742-0.743-5.519-1.441-8.28-2.16h-178.654zM341.203 176.849c75.53 0 151.062-0.062 226.592 0.044 18.409 0.026 32.591 10.894 37.451 27.999 4.826 16.974-1.581 33.985-17.72 43.438-39.467 23.119-56.556 58.436-56.556 103.469-0.005 75.78 0.182 151.559-0.17 227.339-0.066 13.98-1.241 28.15-3.719 41.898-18.285 101.369-119.933 171.207-219.549 151.267-93.097-18.638-155.747-95.748-155.841-191.968-0.073-77.697 0.438-155.399-0.203-233.091-0.352-42.277-17.659-75.805-54.572-97.786-4.806-2.863-9.567-6.557-12.944-10.968-9.258-12.101-11.039-25.708-4.332-39.634 7.2-14.949 19.561-22.006 35.918-22.006 75.216-0.005 150.429-0.003 225.645 0zM303.395 850.307c0 12.804-0.079 25.549 0.018 38.291 0.182 23.347 16.263 40.398 37.952 40.372 21.723-0.028 37.674-17.018 37.866-40.47 0.104-12.732 0.018-25.467 0.018-38.14 12.936-3.207 25.275-5.726 37.296-9.331 112.051-33.595 189.266-136.756 190.142-254.885 0.573-77.372 0.334-154.751-0.010-232.125-0.084-18.566 5.774-31.573 22.445-41.67 43.653-26.446 63.034-79.491 49.075-128.971-13.712-48.59-58.112-83.121-108.443-83.195-152.321-0.223-304.64-0.226-456.962 0.003-50.516 0.077-95.672 35.535-108.674 84.203-13.473 50.428 6.775 102.743 51.079 129.035 14.978 8.892 20.722 21.106 20.689 37.822-0.149 76.418-0.132 152.833-0.051 229.249 0.132 122.348 74.876 224.73 190.363 260.552 11.713 3.635 23.823 5.965 37.197 9.259z" />
<glyph unicode="&#xe914;" glyph-name="icon21" horiz-adv-x="975" d="M600.582 928.824c124.61-0.392 228.442-85.213 253.215-207.344 3.507-17.288 4.772-35.261 4.996-52.944 0.646-50.801 0.262-101.615 0.178-152.424-0.008-4.953 0.328-8.561 5.744-11.473 62.33-33.505 99.572-84.793 109.050-155.486 0.155-1.166 0.967-2.245 1.473-3.365v-38.109c-0.572-1.754-1.44-3.466-1.677-5.263-7.727-58.467-36.045-104.682-83.182-139.603-10.2-7.556-25.252-12.336-30.126-22.287-5.266-10.748-1.209-26.059-1.234-39.379-0.094-54.263-36.452-90.667-90.669-90.718-44.709-0.041-89.42-0.112-134.128 0.115-6.060 0.031-9.328-1.267-12.028-7.419-8.177-18.64-21.887-32.536-40.392-41.161-7.63-3.555-15.848-5.843-23.799-8.707h-139.078c-13.252 5.724-27.853 9.496-39.489 17.551-30.339 21.012-41.975 59.839-30.619 94.739 11.155 34.292 43.36 58.625 79.56 59.050 39.364 0.463 78.756 0.832 118.102-0.099 34.763-0.822 60.098-18.121 75.582-49.173 2.746-5.507 5.161-7.971 11.72-7.923 45.401 0.349 90.804 0.137 136.208 0.206 20.302 0.031 31.744 11.588 31.869 31.93l0.008 26.066h-56.495v400.356h56.054v116.736h-113.872l0.026 18.532c-0.002 2.964-0.012 5.891-0.038 8.817-0.445 50.028-37.473 87.152-87.557 87.277-74.931 0.191-149.862 0.183-224.79 0.005-50.534-0.122-87.432-37.376-87.72-88.078l-0.005-26.204h-113.692v-117.087h55.764v-400.675c-33.19-2.033-65.993 0.092-97.722 12.198-83.622 31.907-137.088 111.592-131.408 200.742 4.724 74.132 42.334 128.794 106.952 164.793 6.457 3.596 8.88 7.022 8.826 14.451-0.366 49.852-0.216 99.709-0.186 149.564 0.084 132.204 89.58 237.775 219.942 259.021 12.468 2.031 25.282 2.654 37.941 2.695 75.565 0.242 151.129 0.313 226.694 0.076z" />
<glyph unicode="&#xe915;" glyph-name="icon22" horiz-adv-x="890" d="M530.014 881.585c-17.512 3.211-31.859-6.408-34.75-23.303-2.822-16.49 7.678-30.424 25.501-33.845 194.441-37.308 330.1-218.453 311.897-421.691-13.859-154.753-92.55-264.513-228.298-330.588-7.402-3.602-15.219-6.293-25.158-10.355 4.135 7.844 7.084 13.056 9.685 18.451 7.131 14.795 2.437 31.54-10.838 39.165-13.444 7.726-29.606 3.247-37.746-11.301-14.28-25.523-28.263-51.228-41.971-77.086-7.245-13.668-3.451-29.986 9.205-38.17 24.7-15.966 49.629-31.579 74.816-46.703 13.365-8.024 29.705-3.028 37.331 10.146 7.666 13.244 4.011 29.914-8.757 39.055-4.774 3.419-9.844 6.396-16.44 10.645 5.443 2.182 8.849 3.581 12.278 4.914 204.329 79.496 321.092 303.737 272.825 523.981-39.064 178.264-176.996 315.052-349.579 346.684zM301.563 931.667h-13.036c-16.937-8.522-23.276-18.792-21.428-32.979 2.187-16.788 16.405-21.842 28.62-30.71-4.282-1.747-7.016-2.933-9.8-3.985-164.522-62.142-280.36-226.559-285.679-406.806-3.59-121.722 32.959-229.234 111.323-320.434 66.766-77.703 150.565-125.118 249.282-144.357 16.201-3.156 30.339 5.76 33.954 20.85 4.16 17.372-6.033 31.813-24.418 36.374-21.052 5.225-42.43 9.86-62.701 17.493-169.53 63.83-273.446 238.75-248.026 423.573 20.875 151.796 103.212 256.883 239.632 316.704 3.187 1.399 6.565 2.336 11.879 4.198-3.774-6.971-6.421-11.648-8.877-16.43-7.844-15.273-3.794-32.179 9.583-40.297 13.768-8.355 30.374-3.462 38.989 12.060 13.733 24.742 27.239 49.622 40.569 74.598 8.352 15.656 4.411 31.561-10.26 40.809-26.416 16.649-53.060 32.914-79.608 49.339zM449.094 731.519c75.079-12.161 135.519-73.617 146.802-150.251 2.219-15.069 1.328-30.585 2.568-45.835 0.279-3.438 2.656-7.905 5.449-9.745 26.159-17.237 39.263-41.274 39.18-72.942l-0.080-179.077c-0.119-49.872-34.072-83.919-83.53-83.992l-139.232-0.013c-46.411 0-92.82-0.068-139.232 0.018-48.726 0.092-82.933 34.379-83.062 83.488-0.158 60.344-0.039 120.688-0.034 181.032 0.003 30.917 13.107 54.652 38.96 70.809 5.079 3.174 6.097 6.61 5.896 11.821-1.323 34.416 3.718 67.53 19.405 98.575 35.183 69.619 110.595 108.469 186.909 96.112zM489.327 477.747l-68.606-0.012c-46.383 0-92.766 0.058-139.147-0.029-18.212-0.034-25.67-7.735-25.686-26.331-0.052-58.679-0.047-117.357-0.005-176.036 0.016-19.402 7.642-26.945 27.138-26.951h274.428c20.472 0.003 27.639 7.366 27.647 28.418 0.021 57.698 0.023 115.399-0.003 173.099-0.008 20.568-7.040 27.795-27.159 27.816l-68.608 0.025zM350.654 652.189c-34.871-25.573-55.769-71.245-48.468-115.148h237.002c7.327 45.801-16.186 95.393-56.671 120.312-41.252 25.395-93.376 23.062-131.863-5.164z" />
<glyph unicode="&#xe916;" glyph-name="icon23" horiz-adv-x="829" d="M371.685 858.927c2.115-5.707 5.234-5.965 9.903-5.957 43.819 0.069 87.639 0.341 131.453-0.048 50.983-0.451 91.445-32.949 102.233-81.71 1.566-7.080 2.401-14.467 2.436-21.718 0.227-44.133 0.392-88.273 0.028-132.405-0.206-25.080-21.555-41.286-44.318-34.492-15.038 4.491-24.065 17.194-24.118 34.78-0.127 41.594-0.038 83.189-0.051 124.786-0.010 29.793-12.527 42.391-42.106 42.394h-128.775v-685.857h9.378c40.642 0.003 81.285-0.041 121.93 0.018 25.625 0.036 39.507 13.821 39.553 39.375 0.081 44.453-0.176 88.907 0.122 133.357 0.171 25.124 23.426 41.597 45.782 32.662 12.82-5.122 21.315-14.793 21.407-28.825 0.333-51.429 1.729-102.949-0.72-154.27-2.365-49.529-47.831-89.948-98.608-90.818-44.125-0.759-88.27-0.214-132.405-0.242l-10.893-0.003c-1.079-2.851-2.062-5.435-3.037-8.019-13.067-34.627-37.689-56.372-73.345-65.848-2.37-0.629-4.659-1.563-6.985-2.355h-30.49c-61.359 20.238-122.739 40.418-184.076 60.733-49.774 16.486-75.923 52.511-75.939 104.914l-0.005 643.939c0.013 53.055 26.239 88.894 76.445 105.484 54.163 17.896 108.196 36.185 162.379 54.023 57.635 18.973 111.742-7.008 132.823-63.897zM256.677 857.033c-51.838-18.78-104.441-35.452-156.732-52.984-24.419-8.19-30.887-16.993-30.89-42.366l-0.005-326.784c0-105.436-0.023-210.872 0.023-316.305 0.010-21.084 7.65-31.855 27.219-38.415 54.394-18.238 108.768-36.544 163.308-54.343 6.942-2.266 15.134-3.383 22.199-2.072 18.062 3.353 27.153 17.301 27.158 39.089l0.013 378.232c0 126.077-0.476 252.158 0.355 378.23 0.195 29.388-22.398 48.672-52.647 37.717zM716.782 563.935c-10.078 9.597-22.216 11.993-35.294 7.37-13.21-4.671-20.557-14.612-22.331-28.301-1.489-11.468 2.836-21.124 10.997-29.169l35.508-35.118-1.084-2.225-211.162-0.015c-4.127-0.003-8.279 0.048-12.37-0.382-19.592-2.059-33.321-21.15-29.192-40.403 3.811-17.772 17.171-27.746 37.832-27.771 68.279-0.076 136.56-0.031 204.839-0.031h13.368c-14.322-14.195-26.267-26.002-38.173-37.847-8.655-8.61-12.861-18.973-10.588-31.109 2.53-13.515 10.353-23.006 23.716-27.232 13.76-4.351 25.755-0.782 35.785 9.203 31.737 31.59 63.49 63.167 94.955 95.024 15.394 15.585 15.134 35.864-0.428 51.721-20.465 20.849-41.258 41.378-61.919 62.034-11.456 11.448-22.733 23.082-34.459 34.25z" />
<glyph unicode="&#xe917;" glyph-name="icon24" horiz-adv-x="1365" d="M512 448c0-94.257 76.41-170.667 170.667-170.667s170.667 76.41 170.667 170.667c0 94.257-76.41 170.667-170.667 170.667s-170.667-76.41-170.667-170.667zM1356.291 488.52c-148.442 313.639-372.826 471.48-673.624 471.48-300.955 0-525.183-157.84-673.625-471.637-12.056-25.605-12.056-55.278 0-80.883 148.442-313.639 372.826-471.48 673.625-471.48 300.954 0 525.182 157.84 673.624 471.637 12.057 25.443 12.057 54.969 0 80.883zM682.667 192c-141.382 0-256 114.618-256 256s114.618 256 256 256c141.382 0 256-114.618 256-256s-114.618-256-256-256z" />
<glyph unicode="&#xe918;" glyph-name="icon25" horiz-adv-x="1707" d="M854.575 959.942c221.259 0 442.518 0.136 663.771-0.084 70.936-0.065 116.934-36.663 127.198-100.838 6.21-38.865-8.988-70.813-33.778-99.614-68.482-79.55-136.653-159.365-204.96-239.064-151.851-177.182-303.781-354.293-455.528-531.559-59.979-70.062-136.543-70.399-196.075-0.868-219.511 256.369-438.18 513.477-659.348 768.409-68.262 78.682-29.484 168.614 31.298 192.389 20.373 7.972 43.945 10.699 66.073 10.77 220.45 0.758 440.9 0.46 661.349 0.46z" />
<glyph unicode="&#xe919;" glyph-name="icon26" horiz-adv-x="960" d="M937.143 960c12.624 0 22.857-25.047 22.857-55.943 0-27.464-8.086-50.305-18.749-55.042l-4.109-0.901h-914.286c-12.624 0-22.857 25.047-22.857 55.943 0 27.464 8.086 50.305 18.749 55.042l4.109 0.901h914.286zM937.143 528.114c12.624 0 22.857-25.047 22.857-55.943 0-27.464-8.086-50.305-18.749-55.042l-4.109-0.901h-914.286c-12.624 0-22.857 25.047-22.857 55.943 0 27.464 8.086 50.305 18.749 55.042l4.109 0.901h914.286zM937.143 96.228c12.624 0 22.857-25.047 22.857-55.943 0-27.464-8.086-50.305-18.749-55.042l-4.109-0.901h-914.286c-12.624 0-22.857 25.047-22.857 55.943 0 27.464 8.086 50.305 18.749 55.042l4.109 0.901h914.286z" />
<glyph unicode="&#xe91a;" glyph-name="icon27" horiz-adv-x="1463" d="M849.71 303.083c120.769-100.054 241.182-199.815 363.931-301.507h-963.855c122.291 101.352 242.525 200.998 363.79 301.499 29.565-24.431 58.051-48.172 86.769-71.63 22.104-18.056 40.629-18.137 62.825-0.031 28.745 23.454 57.165 47.309 86.54 71.668zM172.273 668.757c125.707-104.135 249.624-206.789 374.724-310.421-124.917-103.498-248.845-206.171-374.724-310.463v620.883zM1290.429 668.243v-619.807c-125.184 103.7-249.013 206.282-374.071 309.882 124.738 103.349 248.563 205.938 374.071 309.924zM1214.243 715.628c-161.874-134.144-321.539-266.455-482.551-399.882-160.699 133.148-320.307 265.394-482.62 399.882h965.171zM1249.245 959.873c88.581-0.042 167.897-55.52 199.511-138.477 31.603-82.929 9.018-176.38-57.077-235.928-3.851-3.47-8.022-6.589-14.739-12.071l-0.019 17.178c-0.824 34.7 0.767 69.679-3.099 104.044-6.465 57.452-59.47 103.635-117.143 105.891-5.228 0.206-10.468 0.401-15.7 0.401-339.465 0.019-678.926-0.126-1018.386 0.16-56.997 0.050-99.752-23.351-123.562-75.123-8.419-18.308-10.751-40.243-12.125-60.773-1.969-29.367-0.504-58.968-0.504-91.82-5.828 4.493-9.85 7.207-13.43 10.418-38.148 34.208-62.187 76.245-70.335 127.101-0.359 2.218-1.736 4.272-2.637 6.402v57.15c4.664 15.766 8.358 31.902 14.159 47.24 31.367 82.956 110.907 138.171 199.561 138.213 345.178 0.157 690.352 0.164 1035.526-0.008z" />
<glyph unicode="&#xe91b;" glyph-name="icon28" d="M293.313 566.717c93.365-131.657 205.382-243.72 337.492-337.511 10.956 15.629 21.253 30.409 31.65 45.115 41.346 58.492 108.965 70.468 167.908 29.543 44.685-31.021 89.152-62.36 133.761-93.497 65.023-45.375 77.469-107.51 35.468-175.083-38.374-61.744-95.965-90.774-166.184-97.499-90.201-8.64-174.64 14.86-254.26 53.697-235.971 115.108-412.005 291.202-526.017 528.101-30.172 62.694-49.361 129.091-52.658 199.126-3.297 70.028 10.025 135.31 61.305 187.292 26.185 26.548 57.284 46.321 94.912 52.33 42.185 6.737 78.817-6.955 104.029-40.531 40.381-53.782 79.334-108.827 115.598-165.451 30.942-48.313 16.344-112.477-29.421-147.336-17.048-12.983-34.863-24.966-53.581-38.298z" />
<glyph unicode="&#xe91c;" glyph-name="icon29" d="M1024 937.999c-29.724-59.115-59.554-118.177-89.155-177.355-134.421-268.732-268.776-537.499-403.164-806.248-1.635-3.271-3.156-6.635-5.127-9.698-7.526-11.697-21.998-11.571-29.479 0.22-1.598 2.52-2.835 5.27-4.175 7.947-162.514 325.001-325.024 650.003-487.528 975.009-8.455 16.909-7.371 22.209 6.427 32.125 3.334 0 6.667 0 10.001 0 4.716-3.061 9.445-6.101 14.146-9.182 155.494-101.844 311.026-203.636 466.355-305.728 7.271-4.779 11.924-4.779 19.195 0 160.047 105.15 320.293 210.003 480.501 314.91h22.005v-22.001z" />
</font>
</defs>
</svg>
